<?xml version="1.0" encoding="utf-8"?>
<!-- Generator: Adobe Illustrator 21.0.0, SVG Export Plug-In . SVG Version: 6.00 Build 0)  -->
<svg version="1.1" id="图层_1" xmlns="http://www.w3.org/2000/svg" xmlns:xlink="http://www.w3.org/1999/xlink" x="0px" y="0px"
	 viewBox="0 0 200 200" style="enable-background:new 0 0 200 200;" xml:space="preserve">
<path d="M98.9,54.9c8.9,0,16.7,3.3,23.3,10l63.3,71.1c4.4,4.4,3.3,11.1-1.1,15.6c-4.4,4.4-11.1,3.3-15.6-1.1l-64.4-71.1
	c-1.1-1.1-3.3-2.2-5.6-2.2c-2.2,0-4.4,1.1-6.7,3.3l-61.1,71.1c-4.4,4.4-11.1,5.6-15.6,1.1s-5.6-11.1-1.1-15.6l61.1-71.1
	C81.1,58.3,88.9,54.9,98.9,54.9C97.8,54.9,98.9,54.9,98.9,54.9z"/>
</svg>
